<?xml version="1.0" encoding="utf-8"?>
<!-- Generator: Adobe Illustrator 25.1.0, SVG Export Plug-In . SVG Version: 6.00 Build 0)  -->
<svg version="1.1" xmlns="http://www.w3.org/2000/svg" xmlns:xlink="http://www.w3.org/1999/xlink" x="0px" y="0px"
	 viewBox="0 0 800 800" style="enable-background:new 0 0 800 800;" xml:space="preserve">
<style type="text/css">
	.st0{fill:none;stroke:#FFFFFF;stroke-width:6;}
	.st1{fill:none;}
	.st2{fill:#DA251C;}
	.st3{fill:#FFFFFF;}
	.st4{fill:#CCCCCC;}
	.st5{fill:#E63D35;stroke:#FFFFFF;stroke-width:6;}
	.st6{fill:#DA251C;stroke:#FFFFFF;stroke-width:6;}
	.st7{fill:#BD251C;stroke:#FFFFFF;stroke-width:6;}
	.st8{fill:#771E18;stroke:#FFFFFF;stroke-width:6;}
</style>
<g id="Camada_2">
	<g>
		<g>
			<path d="M102.9,295.7c0-1.5,1.7-2.7,3.8-2.7h22v1c0,13.8,7.4,24.9,22.2,33.2c14.8,8.3,34.5,12.5,59,12.5c24.4,0,43.7-3.4,58-10.1
				c14.3-6.7,21.5-15.8,21.5-27.2c0-8.7-4.1-15.2-12.4-19.7c-8.3-4.5-25.4-8.4-51.5-11.7l-54.5-6.7c-20.3-2.5-35.5-7.4-45.5-15
				c-10-7.5-15.1-17.6-15.1-30.3c0-15.9,8.8-28.7,26.3-38.2c17.5-9.5,41.3-14.3,71.2-14.3c30.9,0,55.3,4.9,73,14.8
				c16.7,9.3,25.9,22,27.6,38.1c0.2,1.6-1.6,2.9-3.8,2.9h-18.2c-1.9,0-3.5-1-3.8-2.3c-2.2-11.6-9.2-20.6-21-26.8
				c-12.6-6.7-30.3-10-53.1-10c-22.2,0-39.7,3.1-52.6,9.4c-12.9,6.3-19.4,14.7-19.4,25.5c0,8.5,4.5,15,13.5,19.6
				c9,4.5,25.8,8.3,50.4,11.3l48.7,6c23.3,2.9,40.4,8.1,51.2,15.6c10.8,7.4,16.2,17.8,16.2,31.2c0,17.5-9.2,31.2-27.4,41
				c-18.3,9.9-43.8,14.8-76.4,14.8c-34.1,0-60.8-5.5-80.3-16.6C112.6,329.9,102.9,314.8,102.9,295.7L102.9,295.7z"/>
		</g>
		<g>
			<path class="st0" d="M212.5,365.5c-35.3,0-63.7-5.9-84.3-17.6c-22.1-12.5-33.3-30.1-33.3-52.2c0-6,5.2-10.7,11.8-10.7h30v9
				c0,10.8,5.9,19.4,18.1,26.3c13.5,7.6,32,11.5,55.1,11.5c23.1,0,41.4-3.1,54.6-9.4c16.9-8,16.9-17,16.9-19.9
				c0-5.7-2.5-9.6-8.2-12.7c-5-2.7-17.6-6.8-48.7-10.8l-54.5-6.7c-21.9-2.6-38.1-8-49.4-16.5c-12.1-9.1-18.3-21.4-18.3-36.7
				c0-19,10.3-34.3,30.5-45.2c18.7-10.1,43.9-15.3,75-15.3c32.2,0,58,5.3,76.9,15.8c19.1,10.6,29.7,25.5,31.6,44.3
				c0.3,2.9-0.6,5.6-2.6,7.8c-2.2,2.5-5.6,3.9-9.2,3.9h-18.2c-5.8,0-10.7-3.7-11.6-8.9c-1.7-9.2-7.2-16.1-16.9-21.2
				c-11.4-6-28-9.1-49.3-9.1c-20.8,0-37.4,2.9-49.2,8.6c-13.3,6.5-14.9,13.5-14.9,18.3c0,3.6,1,8.4,9.1,12.4
				c5.6,2.8,18.4,6.9,47.8,10.6l48.7,6c24.9,3.1,42.7,8.7,54.7,16.9c13,9,19.6,21.7,19.6,37.7c0,20.6-10.6,36.8-31.7,48.1
				C273.3,360.2,246.3,365.5,212.5,365.5z"/>
		</g>
	</g>
	<g>
		<path d="M414.4,353.2V172.6c0-1.5,1.8-2.8,4-2.8h125.9c27.6,0,48.5,4,62.7,11.9c14.2,7.9,21.3,19.6,21.3,35
			c0,9.9-3.5,18.2-10.4,25c-5.2,5.1-12.4,9.4-21.6,12.8c-3.1,1.2-2.7,4.3,0.6,5.1c11.8,2.7,21.1,7,28,12.8
			c8.9,7.5,13.3,17.3,13.3,29.3c0,18.5-7.7,32.1-23,40.9c-15.4,8.8-39.1,13.2-71.2,13.2H418.4C416.2,355.9,414.4,354.7,414.4,353.2z
			 M441.5,247c0,1.5,1.8,2.8,4,2.8h90.7c23.5,0,40.1-2.4,49.9-7.3c9.8-4.9,14.7-12.9,14.7-24.2c0-11.1-4.8-19.1-14.4-24
			c-9.6-4.9-25.5-7.4-47.7-7.4h-93.2c-2.2,0-4,1.2-4,2.8V247z M441.5,334.7c0,1.5,1.8,2.8,4,2.8h95.9c24.3,0,41.9-2.7,52.8-8.1
			c10.9-5.4,16.3-14,16.3-25.8c0-12.9-5.1-22.3-15.2-28.2c-10.1-5.9-26.2-8.9-48.2-8.9H445.5c-2.2,0-4,1.2-4,2.8V334.7z"/>
		<path class="st0" d="M418.4,363.9c-6.7,0-12-4.7-12-10.8V172.6c0-6,5.3-10.8,12-10.8h125.9c29.2,0,51,4.2,66.6,12.9
			c16.6,9.3,25.4,23.8,25.4,42c0,12.1-4.3,22.4-12.8,30.7c-3.1,3.1-6.9,5.9-11.3,8.5c7,2.7,13,6.2,17.9,10.4
			c10.7,9.1,16.1,21,16.1,35.4c0,21.4-9.1,37.5-27,47.8c-16.7,9.6-41.3,14.3-75.2,14.3H418.4z M541.4,329.4c23,0,39.6-2.4,49.3-7.2
			c8.2-4,11.9-9.8,11.9-18.6c0-10.1-3.6-16.9-11.2-21.3c-8.8-5.2-23.7-7.8-44.2-7.8h-97.7v55H541.4z M536.1,241.7
			c27.6,0,40.4-3.5,46.4-6.5c7.1-3.5,10.3-8.8,10.3-17c0-8.1-3.1-13.3-10.1-16.8c-8.5-4.3-23.3-6.5-44-6.5h-89.2v46.8H536.1z"/>
	</g>
	<g>
		<path d="M657.8,351.4V170.9c0-1.5,1.2-2.8,2.6-2.8h12.3c1.4,0,2.6,1.2,2.6,2.8v180.6c0,1.5-1.2,2.8-2.6,2.8h-12.3
			C658.9,354.2,657.8,353,657.8,351.4z"/>
		<path class="st0" d="M660.4,362.2c-5.8,0-10.6-4.8-10.6-10.8V170.9c0-5.9,4.8-10.8,10.6-10.8h12.3c5.8,0,10.6,4.8,10.6,10.8v180.6
			c0,5.9-4.8,10.8-10.6,10.8H660.4z"/>
	</g>
	<g>
		<path d="M199.8,501.7v-86.9h98.7v8.2h-85.3v30h76v8.5h-76v40.2H199.8z"/>
		<polygon class="st0" points="191.8,509.7 191.8,406.8 306.5,406.8 306.5,431 221.1,431 221.1,445 297.2,445 297.2,469.5 
			221.1,469.5 221.1,509.7 		"/>
	</g>
	<g>
		<path d="M385.1,443.2c-1.6-7.1-5.1-12.6-10.5-16.5c-5.3-3.9-12.1-5.8-20.3-5.8c-11.1,0-19.8,3.3-26.2,10
			c-6.4,6.6-9.5,15.8-9.5,27.4c0,11.3,3.1,20.4,9.3,27.1c6.2,6.7,14.4,10.1,24.8,10.1c8.5,0,15.8-2.4,21.8-7.1s9.9-11.2,11.6-19.2h9
			c-1.9,10.7-6.7,19.2-14.2,25.5c-7.5,6.3-16.8,9.4-27.9,9.4c-13,0-23.4-4.2-31.2-12.5c-7.8-8.3-11.7-19.4-11.7-33.3
			c0-14.2,3.9-25.4,11.8-33.6c7.9-8.1,18.7-12.2,32.6-12.2c10.9,0,19.8,2.7,26.7,8.2c6.9,5.4,11.1,13,12.5,22.6H385.1z"/>
		<path class="st0" d="M353,512c-15.2,0-27.7-5-37-15c-9.2-9.8-13.9-22.8-13.9-38.7c0-16.3,4.7-29.5,14.1-39.1
			c9.4-9.7,22.3-14.7,38.3-14.7c12.7,0,23.3,3.3,31.7,9.9c8.6,6.7,13.8,16.1,15.4,27.7l1.3,9.1h-24.2l-1.4-6.2
			c-1.2-5.2-3.6-9.1-7.4-11.8c-4-2.9-9.1-4.3-15.6-4.3c-8.9,0-15.6,2.5-20.4,7.5c-4.9,5.1-7.3,12.3-7.3,21.8
			c0,9.3,2.3,16.4,7.2,21.7c4.6,5.1,10.8,7.5,18.9,7.5c6.7,0,12.2-1.8,16.8-5.4c4.5-3.6,7.4-8.4,8.7-14.6l1.3-6.3h25l-1.7,9.4
			c-2.3,12.6-8,22.8-17,30.2C377,508.2,365.9,512,353,512z"/>
	</g>
	<g>
		<path d="M413.4,472.6l8.5-0.1c0,0.1,0,0.2-0.1,0.4c-0.1,1.6-0.2,2.9-0.2,3.7c0,6.4,1.5,11.2,4.6,14.4s7.6,4.8,13.6,4.8
			c6.7,0,11.5-1.8,14.4-5.3c2.8-3.5,4.3-9.5,4.3-18.1v-57.8h8.4v56.1c0,6.9-0.4,12-1.1,15.1c-0.7,3.1-1.9,5.8-3.6,8.1
			c-2.3,3.2-5.3,5.6-9,7.3c-3.7,1.7-7.8,2.6-12.3,2.6c-9.1,0-15.9-2.4-20.6-7.1c-4.7-4.7-7-11.7-7-20.9c0-0.9,0-1.6,0-2.1
			C413.4,473.4,413.4,473,413.4,472.6z"/>
		<path class="st0" d="M440.9,512c-11.2,0-20.1-3.2-26.3-9.5c-6.2-6.3-9.3-15.2-9.3-26.5c0-1.1,0-1.9,0-2.4c0-0.6,0.1-1.2,0.1-1.7
			l0.7-7.2l23.7-0.2v8.1c0,0.5,0,1-0.1,1.4c-0.1,1.6-0.1,2.4-0.1,2.8c0,2.9,0.4,6.8,2.4,8.9c1.5,1.6,4.1,2.4,7.8,2.4
			c2.4,0,6.5-0.3,8.2-2.3c0.6-0.7,2.5-3.8,2.5-13.1v-65.8h24.4v64.1c0,7.6-0.4,13.1-1.3,16.8c-0.9,4.2-2.6,7.9-5,11.1
			c-3.1,4.2-7.1,7.5-12,9.8C451.9,510.9,446.7,512,440.9,512z"/>
	</g>
	<g>
		<path d="M478.1,501.7l49-86.9h12.2l48.4,86.9H577l-14.9-26.9H504l-15,26.9H478.1z M508.7,466.4h48.7L533.1,422L508.7,466.4z"/>
		<path class="st0" d="M572.3,509.7l-14.9-26.9h-48.7l-15,26.9h-29.3l58-102.9H544l57.3,102.9H572.3z M543.9,458.4l-10.8-19.8
			l-10.9,19.8H543.9z"/>
	</g>
	<path class="st1" d="M330,199.4v9.3c-0.2-1.5-0.3-3.1-0.3-4.6S329.8,200.9,330,199.4z"/>
	<path class="st1" d="M403.2,156.4c0,0-0.9-0.1-1.9-0.3c-1.1-0.2-1.9-0.3-1.9-0.3s0.9,0.1,1.9,0.3
		C402.4,156.3,403.2,156.4,403.2,156.4z"/>
	<g>
		<path class="st2" d="M380.9,158.3l-0.4-0.1c-8.9-1.6-17.5,4.4-19.1,13.3L329,352.2c-0.6,3.3,1.6,6.5,4.9,7.1l20.7,3.7
			c3.3,0.6,6.5-1.6,7.1-4.9l32.4-180.7C395.7,168.5,389.8,159.9,380.9,158.3z"/>
		<path class="st0" d="M355.8,371c-0.8,0-1.7-0.1-2.5-0.2l-20.7-3.7c-3.7-0.7-6.9-2.7-9-5.8c-2.1-3.1-3-6.8-2.3-10.5l32.4-180.7
			c2.1-11.6,12.2-20.1,24-20.1c1.4,0,2.9,0.1,4.3,0.4l0.4,0.1c13.2,2.4,22.1,15.1,19.7,28.3l-32.4,180.7
			C368.4,366.2,362.6,371,355.8,371C355.8,371,355.8,371,355.8,371z"/>
	</g>
	<path d="M354.8,362c0.6-0.4,1.1-1.2,1.2-2.1l31.5-181.8c0.9-5-1.8-10.2-6.5-12c-1-0.4-2.1-0.7-3.2-0.9c0,0-0.1,0-0.1,0
		c-5.5-1.1-10.6,2.8-11.6,8.5l-31.5,181.8c-0.2,0.9,0,1.8,0.4,2.4l1.6,1.5c0.3,0.4,0.7,0.7,1.1,0.8l13.8,2.8c0.4,0.1,0.9,0,1.3-0.3
		L354.8,362z M349.3,362.1l-1.8-0.4v0l-5.6-1.1l0,0l-1.8-0.4l0,0l0,0c-1.6-0.5-3-1.6-4-3.3c-0.3-0.5-0.5-1.3-0.3-2l31.1-179.8
		c0.7-4,3.4-7.2,6.7-8.3l0,0c0.1,0,0.2,0,0.3-0.1c0.1,0,0.1,0,0.2-0.1c0.2-0.1,0.4-0.1,0.7-0.1c0.1,0,0.2,0,0.3,0
		c0.2,0,0.3,0,0.5-0.1l0,0c0.7,0,1.3,0,2,0.1c0,0,0.1,0,0.1,0c1,0.2,2,0.5,2.9,0.9c4.2,1.6,6.6,6.7,5.7,11.7l-31.1,179.7
		c-0.1,0.7-0.5,1.4-1,1.8C352.7,361.8,351,362.3,349.3,362.1L349.3,362.1z"/>
	<path class="st3" d="M401.7,172.6c0.1,0,0.2,0,0.2,0C401.9,172.6,401.8,172.6,401.7,172.6z"/>
	<path class="st3" d="M402.7,172.6c0.1,0,0.2,0,0.4,0C402.9,172.6,402.8,172.6,402.7,172.6z"/>
	<path class="st3" d="M355.2,358.9l31.2-180c0.9-5-1.5-10.1-5.7-11.7c-0.9-0.4-1.9-0.6-2.9-0.9c0,0-0.1,0-0.1,0
		c-0.7-0.1-1.4-0.2-2-0.1l-33.7,194.5l5.6,1.1l0,0l33.7-194.4c0.6,0.3,1.2,0.6,1.7,1.1l-33.5,193.6l0,0c1.7,0.2,3.4-0.3,4.9-1.5
		C354.7,360.3,355.1,359.7,355.2,358.9z"/>
	<path class="st3" d="M367,174.9L335.8,355c-0.1,0.7,0,1.5,0.3,2c1,1.6,2.4,2.8,4,3.3l33.6-193.7C370.4,167.7,367.7,170.9,367,174.9
		z"/>
	<path class="st4" d="M382.8,168.5c-0.5-0.4-1.1-0.8-1.7-1.1l-33.7,194.4l0,0l0,0l1.8,0.4l0,0l0,0L382.8,168.5z"/>
	<path class="st4" d="M375.6,166.2c-0.2,0-0.3,0-0.5,0.1c-0.1,0-0.2,0-0.3,0c-0.2,0-0.4,0.1-0.7,0.1c-0.1,0-0.1,0-0.2,0.1
		c-0.1,0-0.2,0-0.3,0.1l0,0l-33.6,193.7l0,0l0,0l1.8,0.4l0,0L375.6,166.2L375.6,166.2z"/>
</g>
<g id="Camada_3">
	<path class="st5" d="M795.2,538.3c-5.1,10.4-10.7,20.5-16.6,30.4c-30.6-6.4-62.3-9.7-94.7-9.7c-94.6,0-182.7,28.5-256.5,77.5
		c-9.5,6.3-18.8,13-27.9,20c-9-7-18.3-13.7-27.9-20C298,587.5,209.9,559,115.2,559c-32,0-63.2,3.3-93.4,9.5
		c-5.9-9.9-11.4-20-16.6-30.4c35.4-8.1,72.2-12.3,110-12.3c105.5,0,203.5,33.1,284.4,89.8c80.9-56.6,178.8-89.8,284.4-89.8
		C722.2,525.7,759.4,530.1,795.2,538.3z"/>
	<path class="st6" d="M778.6,568.7c-8.4,14.1-17.6,27.6-27.5,40.6c-3-0.5-6-1-9-1.4c-1.7-0.2-3.3-0.5-4.9-0.7
		c-0.2,0-0.5-0.1-0.7-0.1c-1.4-0.2-2.8-0.4-4.2-0.5c-1.1-0.1-2.2-0.3-3.3-0.4c-1.1-0.1-2.1-0.2-3.2-0.3c-2.2-0.2-4.4-0.4-6.6-0.6
		c-1-0.1-2-0.2-2.9-0.3c-0.6,0-1.1-0.1-1.7-0.1c-1.5-0.1-3-0.2-4.6-0.3c-1.8-0.1-3.6-0.2-5.4-0.3c-0.1,0-0.2,0-0.2,0
		c-1.7-0.1-3.5-0.2-5.3-0.2c-1.5-0.1-3.1-0.1-4.6-0.2c-0.8,0-1.7,0-2.5-0.1c-0.6,0-1.1,0-1.7,0c-1,0-1.9,0-2.9,0c-1.6,0-3.2,0-4.8,0
		c-80.9,0-156.6,23-221.1,62.9c-9.6,5.9-18.9,12.2-27.9,18.9c-12.3,9-24.1,18.7-35.4,29c-10.8-9.9-22.1-19.2-33.8-27.9
		c-9-6.7-18.3-13-27.8-19c-64.8-40.6-141.1-63.9-222.7-63.9c-1.7,0-3.3,0-5,0c-0.7,0-1.4,0-2.2,0c-1.2,0-2.4,0-3.6,0.1
		c-0.5,0-1.1,0-1.6,0h-0.1c-1.2,0-2.3,0.1-3.5,0.1c-2.5,0.1-4.9,0.2-7.4,0.3c-1.3,0.1-2.7,0.1-4,0.2c-1.3,0.1-2.6,0.2-3.8,0.3
		c-0.1,0-0.3,0-0.4,0c-0.9,0.1-1.9,0.1-2.8,0.2c-2.8,0.2-5.5,0.5-8.3,0.8c-0.6,0.1-1.2,0.1-1.8,0.2c-1.5,0.1-3,0.3-4.5,0.5
		c-1.4,0.1-2.7,0.3-4.1,0.5c-0.3,0-0.5,0-0.8,0.1c-0.4,0-0.9,0.1-1.3,0.2c-2,0.3-4.1,0.6-6.1,0.9c-0.9,0.1-1.8,0.3-2.7,0.4
		c-0.3,0-0.6,0.1-0.9,0.1c-9.8-12.9-18.9-26.4-27.2-40.3c30.2-6.2,61.4-9.5,93.4-9.5c94.6,0,182.7,28.5,256.5,77.5
		c9.5,6.3,18.8,13,27.9,20c9-7,18.3-13.7,27.9-20c73.8-49,161.9-77.5,256.5-77.5C716.4,559,748,562.3,778.6,568.7z"/>
	<path class="st7" d="M751.1,609.3c-12.2,16.1-25.6,31.4-39.9,45.6c-1.7-0.1-3.5-0.3-5.3-0.4c-1.3-0.1-2.7-0.2-4-0.2
		c-1.6-0.1-3.2-0.2-4.8-0.2c-0.1,0-0.1,0-0.2,0c-1.6-0.1-3.1-0.1-4.7-0.1c-1.6,0-3.2-0.1-4.9-0.1c-1.6,0-3.2,0-4.9,0
		c-67.7,0-131.3,18.2-186.2,50c-9.6,5.5-18.9,11.5-27.9,17.9c-12.4,8.7-24.2,18.1-35.5,28.3c-11.7,10.5-22.7,21.7-33,33.6
		c-0.1,0.1-0.2,0.1-0.3,0.1c-0.9,0-1.8,0-2.7,0c-0.2,0-0.4-0.1-0.6-0.2c-10.3-11.9-21.3-23.1-32.9-33.5c-10.7-9.7-22-18.7-33.8-27.1
		c-9-6.4-18.3-12.4-27.8-18c-55.4-32.5-119.6-51.1-188.1-51.1c-1.6,0-3.3,0-4.9,0c-1.5,0-3,0-4.5,0.1c-0.2,0-0.4,0-0.5,0
		c-1.6,0-3.1,0.1-4.7,0.2c-1.6,0.1-3.2,0.1-4.8,0.2c-1.8,0.1-3.6,0.2-5.4,0.3C74.7,640.3,61.3,625,49,608.7c0.3-0.1,0.6-0.1,0.9-0.1
		c0.9-0.1,1.8-0.3,2.7-0.4c2-0.3,4.1-0.6,6.1-0.9c0.4-0.1,0.9-0.1,1.3-0.2c0.3,0,0.5-0.1,0.8-0.1c1.4-0.2,2.7-0.4,4.1-0.5
		c1.5-0.2,3-0.3,4.5-0.5c0.6-0.1,1.2-0.1,1.8-0.2c2.7-0.3,5.5-0.5,8.3-0.8c0.9-0.1,1.9-0.1,2.8-0.2c0.1,0,0.3,0,0.4,0
		c1.3-0.1,2.5-0.2,3.8-0.3c1.3-0.1,2.7-0.2,4-0.2c2.5-0.1,4.9-0.3,7.4-0.3c1.2-0.1,2.3-0.1,3.5-0.1h0.1c0.5,0,1.1,0,1.6,0
		c1.2,0,2.4-0.1,3.6-0.1c0.7,0,1.4,0,2.2,0c1.6,0,3.3,0,5,0c81.6,0,157.9,23.4,222.7,63.9c9.5,5.9,18.8,12.3,27.8,19
		c11.7,8.7,23,18,33.8,27.9c11.3-10.3,23.1-20,35.4-29c9-6.7,18.4-12.9,27.9-18.9c64.5-39.9,140.1-62.9,221.1-62.9
		c1.6,0,3.2,0,4.8,0c1,0,1.9,0,2.9,0c0.6,0,1.1,0,1.7,0c0.8,0,1.7,0,2.5,0.1c1.5,0,3.1,0.1,4.6,0.2c1.8,0.1,3.5,0.1,5.3,0.2
		c0.1,0,0.2,0,0.2,0c1.8,0.1,3.6,0.2,5.4,0.3c1.5,0.1,3.1,0.2,4.6,0.3c0.6,0,1.1,0.1,1.7,0.1c1,0.1,2,0.2,2.9,0.3
		c2.2,0.2,4.4,0.4,6.6,0.6c1.1,0.1,2.1,0.2,3.2,0.3c1.1,0.1,2.2,0.2,3.3,0.4c1.4,0.2,2.8,0.3,4.2,0.5c0.2,0,0.5,0,0.7,0.1
		c1.6,0.2,3.3,0.4,4.9,0.7C745.2,608.4,748.1,608.8,751.1,609.3z"/>
	<path class="st8" d="M396.6,783.8c-19.2-0.2-38.1-1.6-56.7-4.2c-2.7-0.4-5.3-0.7-7.9-1.2c-9.1-7.9-18.6-15.3-28.4-22.1
		c-9-6.2-18.3-12-27.9-17.4c-40.9-22.8-87-37.2-136-40.8c-18-13.2-34.9-27.7-50.6-43.5c0.2,0,0.4,0,0.6,0c1.6-0.1,3.2-0.2,4.8-0.3
		c1.6-0.1,3.2-0.2,4.8-0.2c1.6-0.1,3.1-0.1,4.7-0.2c0.2,0,0.4,0,0.5,0c1.5,0,3-0.1,4.5-0.1c1.6,0,3.2,0,4.9,0
		c68.5,0,132.7,18.6,188.1,51.1c9.5,5.6,18.8,11.6,27.8,18c11.8,8.4,23,17.4,33.8,27.1C375.2,760.6,386.2,771.8,396.6,783.8z"/>
	<path class="st8" d="M711.3,655c-15.6,15.6-32.4,30-50.2,43.1c-49.6,3.4-96.2,17.8-137.6,40.9c-9.6,5.3-18.9,11.2-27.9,17.4
		c-10,6.9-19.6,14.4-28.8,22.4c-3.3,0.5-6.6,1-10,1.4c-18.3,2.4-37,3.6-55.9,3.7h-0.7c-0.1,0-0.3,0-0.4,0
		c10.3-11.9,21.4-23.2,33.1-33.8c11.2-10.1,23.1-19.6,35.5-28.3c9-6.4,18.4-12.3,27.9-17.9c54.9-31.8,118.5-50,186.2-50
		c1.6,0,3.3,0,4.9,0c1.6,0,3.2,0,4.9,0.1c1.6,0,3.1,0.1,4.7,0.1c0.1,0,0.1,0,0.2,0c1.6,0.1,3.2,0.1,4.8,0.2c1.3,0.1,2.7,0.1,4,0.2
		C707.7,654.7,709.5,654.8,711.3,655z"/>
</g>
</svg>
